# xmcd CD database file
#
# Track frame offsets:
#	150
#	10820
#	21869
#	34532
#	45665
#	57441
#	66442
#	80857
#	92009
#	103705
#	115053
#	126749
#	139478
#	148920
#	159613
#	171079
#
# Disc length: 2398 seconds
#
# Revision: 1
# Processed by: cddbd v1.5.1PL2 Copyright (c) Steve Scherf et al.
# Submitted via: jetAudio 5
#
DISCID=ec095c10
DTITLE=Patsy Cline - The Great Patsy Cline - Disc 1
DYEAR=2000
DGENRE=Folk
TTITLE0=Lovesick Blues
TTITLE1=There He Goes
TTITLE2=Fingerprints
TTITLE3=Don't Ever Leave Me
TTITLE4=A Poor Man's Roses Or A Rich Man's Gold
TTITLE5=Try Again
TTITLE6=Then You'll Know
TTITLE7=I Can't Forget
TTITLE8=In Care Of The Blues
TTITLE9=That Wonderful Someone
TTITLE10=Never No More
TTITLE11=Yes I Understand
TTITLE12=Love Me, Love Me Honey Do
TTITLE13=Gotta Lot Of Rhytm In My Soul
TTITLE14=Crazy Dreams
TTITLE15=Ain't No Wheels On This Ship
EXTD=
EXTT0=
EXTT1=
EXTT2=
EXTT3=
EXTT4=
EXTT5=
EXTT6=
EXTT7=
EXTT8=
EXTT9=
EXTT10=
EXTT11=
EXTT12=
EXTT13=
EXTT14=
EXTT15=
PLAYORDER=
